<?xml version="1.0" standalone="no"?><!DOCTYPE svg PUBLIC "-//W3C//DTD SVG 1.1//EN" "http://www.w3.org/Graphics/SVG/1.1/DTD/svg11.dtd"><svg t="1684211874710" class="icon" viewBox="0 0 1024 1024" version="1.1" xmlns="http://www.w3.org/2000/svg" p-id="887" xmlns:xlink="http://www.w3.org/1999/xlink" width="200" height="200"><path d="M715.753054 382.887829l-193.651532-112.270726c-6.221467-3.47867-13.964853-3.47867-20.236493 0.016725L308.246946 382.887829c-6.338538 3.662638-10.268766 10.201868-10.502907 17.51042v223.839028c0 7.592866 4.047299 14.349513 10.586529 17.66094l193.551185 111.451231c3.077285 1.756059 6.589404 2.642451 10.118247 2.642451s7.057686-0.886392 10.134971-2.642451l193.618083-111.501405c6.338538-3.662638 10.268766-10.201868 10.519632-17.51042V400.51532c-0.016724-7.375449-3.846606-13.797609-10.519632-17.627491z m-25.504671 26.842621v205.274972l-177.863722 102.26955-177.863723-102.26955V408.977853l177.863723-102.26955 177.863722 103.022147z" fill="#00B3EA" p-id="888"></path><path d="M645.192918 435.101326c-2.6759-4.431959-6.790096-7.475795-11.556542-8.546155-4.448684-1.003462-8.980989-0.167244-12.810871 2.324688l-108.440844 62.398641-108.491018-62.415365a17.644215 17.644215 0 0 0-13.546743-2.006925c-4.582479 1.187431-8.546155 4.247991-10.887568 8.395636-2.174169 3.913504-2.742797 8.813745-1.588815 13.446397 1.187431 4.749722 4.097472 8.696675 7.994251 10.870843l108.507741 63.184687v124.880904c0 9.934278 8.077873 18.012151 18.012152 18.012151 9.934278 0 18.012151-8.077873 18.012151-18.012151v-125.616777l108.557915-62.465538c4.465408-2.6759 7.525969-6.80682 8.613052-11.606716 0.986738-4.482132 0.150519-9.031162-2.374861-12.84432z" fill="#E8A600" p-id="889"></path></svg>